{"glyphs":{":":{"x_min":0,"x_max":367,"ha":367,"o":"m 173 533 q 203 533 225 511 q 246 490 246 459 q 246 429 225 407 q 203 386 173 386 q 143 386 121 407 q 100 429 100 459 q 100 490 121 511 q 143 533 173 533 z m 173 137 q 203 137 225 116 q 246 94 246 64 q 246 34 225 12 q 203 -10 173 -10 q 143 -10 121 12 q 100 34 100 64 q 100 94 121 116 q 143 137 173 137 z"},"$":{"x_min":0,"x_max":524,"ha":524,"o":"m 224 -12 q 190 -10 139 5 q 87 20 68 33 l 104 123 q 129 104 171 90 q 212 76 245 76 q 302 76 337 107 q 372 138 372 187 q 372 217 362 240 q 352 264 334 278 q 317 292 255 321 l 198 348 q 125 382 95 429 q 66 476 66 542 q 66 610 109 660 q 152 710 224 724 l 224 802 l 292 802 l 292 727 q 396 723 434 689 l 405 604 q 385 618 345 631 q 305 645 271 645 q 221 645 193 616 q 164 588 164 543 q 164 516 174 494 q 185 471 204 456 q 223 440 278 414 l 323 393 q 399 357 434 305 q 469 254 469 173 q 469 107 422 57 q 375 7 292 -7 l 292 -120 l 224 -120 z"},"?":{"x_min":0,"x_max":367,"ha":367,"o":"m 179 209 l 114 209 q 98 256 98 276 q 98 312 111 348 q 124 385 169 436 q 215 487 230 514 q 246 542 246 567 q 246 653 142 653 q 92 653 55 618 l 20 688 q 69 728 167 728 q 240 728 288 687 q 337 645 337 576 q 337 541 324 508 q 312 476 286 448 l 215 372 q 172 319 172 254 q 172 244 179 209 z m 158 137 q 188 137 210 116 q 231 94 231 64 q 231 34 210 12 q 188 -10 158 -10 q 128 -10 106 12 q 85 34 85 64 q 85 94 106 116 q 128 137 158 137 z"},"<":{"x_min":0,"x_max":524,"ha":524,"o":"m 434 106 l 73 281 l 73 341 l 434 514 l 434 436 l 155 311 l 434 185 z"},"'":{"x_min":0,"x_max":160,"ha":160,"o":"m 112 530 l 47 530 l 35 716 l 125 716 z"},"=":{"x_min":0,"x_max":524,"ha":524,"o":"m 469 428 l 469 359 l 60 359 l 60 428 z m 469 262 l 469 193 l 60 193 l 60 262 z"},"a":{"x_min":0,"x_max":525,"ha":525,"o":"m 361 60 q 306 -10 191 -10 q 129 -10 84 35 q 39 80 39 146 q 39 226 109 281 q 178 335 286 335 q 315 335 353 323 q 353 450 239 450 q 152 450 105 403 l 66 480 q 93 502 139 517 q 186 533 229 533 q 342 533 394 481 q 445 429 445 316 l 445 129 q 445 60 486 37 l 486 -9 q 430 -9 402 7 q 374 23 361 60 z m 353 257 q 309 267 291 267 q 221 267 176 230 q 132 194 132 145 q 132 63 228 63 q 298 63 353 130 z"},"L":{"x_min":0,"x_max":506,"ha":506,"o":"m 73 0 l 73 715 l 171 715 l 171 88 l 494 88 l 494 0 z"},"3":{"x_min":0,"x_max":524,"ha":524,"o":"m 53 51 l 100 126 q 148 73 221 73 q 357 73 357 206 q 357 267 317 304 q 278 342 212 342 l 205 342 l 205 421 l 209 421 q 333 421 333 531 q 333 645 216 645 q 153 645 115 603 l 72 669 q 117 728 224 728 q 317 728 376 678 q 436 628 436 550 q 436 490 403 444 q 370 398 325 383 q 387 363 423 315 q 459 267 459 198 q 459 99 396 44 q 333 -10 220 -10 q 172 -10 126 8 q 80 26 53 51 z"},";":{"x_min":0,"x_max":367,"ha":367,"o":"m 173 533 q 203 533 225 511 q 246 490 246 459 q 246 429 225 407 q 203 386 173 386 q 143 386 121 407 q 100 429 100 459 q 100 490 121 511 q 143 533 173 533 z m 109 -177 l 84 -142 q 168 -73 168 -25 q 168 -3 154 18 q 112 38 112 76 q 112 102 132 118 q 152 135 182 135 q 209 135 230 112 q 251 88 251 57 q 251 -8 224 -60 q 197 -112 109 -177 z"},"J":{"x_min":0,"x_max":477,"ha":477,"o":"m 24 143 l 109 143 q 121 78 187 78 q 252 78 279 106 q 306 134 306 263 l 306 715 l 403 715 l 403 267 q 403 121 356 55 q 309 -10 188 -10 q 118 -10 73 32 q 28 73 24 143 z"},"V":{"x_min":0,"x_max":587,"ha":587,"o":"m 322 -10 l 273 -10 l 6 715 l 115 715 l 299 188 l 476 715 l 581 715 z"},"\"":{"x_min":0,"x_max":325,"ha":325,"o":"m 112 530 l 47 530 l 35 716 l 125 716 z m 273 530 l 208 530 l 196 716 l 286 716 z"},"7":{"x_min":0,"x_max":524,"ha":524,"o":"m 209 0 l 101 0 q 137 115 222 303 q 308 492 378 625 l 41 625 l 41 718 l 505 718 l 505 680 l 442 556 q 410 493 375 418 q 341 343 308 265 q 274 187 250 120 q 225 53 209 0 z"},"S":{"x_min":0,"x_max":481,"ha":481,"o":"m 41 33 l 77 123 q 104 103 145 89 q 186 76 218 76 q 275 76 310 107 q 344 138 344 187 q 344 223 325 254 q 306 285 228 321 l 170 348 q 97 382 68 429 q 39 476 39 542 q 39 622 96 675 q 152 728 241 728 q 360 728 406 689 l 377 604 q 358 618 318 631 q 278 645 244 645 q 194 645 165 616 q 137 588 137 543 q 137 516 147 494 q 157 471 176 456 q 194 441 250 414 l 309 386 q 382 351 412 303 q 441 255 441 181 q 441 100 377 44 q 312 -12 204 -12 q 108 -12 41 33 z"},"}":{"x_min":0,"x_max":367,"ha":367,"o":"m 19 -205 l 19 -137 l 56 -137 q 184 -137 184 -25 q 184 11 169 67 q 153 123 153 155 q 153 188 183 222 q 212 256 263 277 q 153 340 153 417 q 153 447 169 497 q 184 547 184 579 q 184 668 104 668 l 19 668 l 19 733 l 91 733 q 170 733 225 695 q 279 656 279 594 q 279 564 261 503 q 243 441 243 408 q 243 360 270 330 q 297 300 345 296 l 345 255 q 243 249 243 152 q 243 116 261 46 q 279 -23 279 -60 q 279 -125 225 -165 q 170 -205 86 -205 z"},"Z":{"x_min":0,"x_max":550,"ha":550,"o":"m 49 0 l 49 24 l 356 627 l 54 627 l 54 715 l 491 715 l 491 691 l 182 88 l 501 88 l 501 0 z"},"x":{"x_min":0,"x_max":501,"ha":501,"o":"m 384 0 l 242 190 l 114 0 l 6 0 l 196 268 l 21 523 l 126 523 l 243 343 l 375 523 l 477 523 l 287 268 l 495 0 z"},")":{"x_min":0,"x_max":367,"ha":367,"o":"m 94 -209 l 94 -158 q 191 -46 191 272 q 191 540 94 680 l 94 720 q 178 677 240 541 q 302 406 302 273 q 302 117 247 -11 q 193 -140 94 -209 z"},"&":{"x_min":0,"x_max":706,"ha":706,"o":"m 454 25 q 383 -10 283 -10 q 181 -10 125 51 q 69 111 69 221 q 69 278 86 319 q 103 361 148 405 q 79 474 79 547 q 79 622 135 675 q 192 728 287 728 q 387 728 442 684 l 401 608 q 346 655 302 655 q 172 655 172 538 q 172 474 229 430 l 410 430 l 410 520 l 503 555 l 503 429 l 625 429 l 625 351 l 503 351 l 503 189 q 503 122 521 98 q 539 73 583 73 q 610 73 646 91 l 659 5 q 607 -10 542 -10 q 496 -10 454 25 z m 410 153 l 410 351 l 213 351 q 167 291 167 226 q 167 73 316 73 q 382 73 416 97 q 410 120 410 153 z"},"_":{"x_min":0,"x_max":524,"ha":524,"o":"m -4 -124 l -4 -61 l 526 -61 l 526 -124 z"},"v":{"x_min":0,"x_max":490,"ha":490,"o":"m 254 -10 l 230 -10 l 6 524 l 107 524 l 246 158 l 387 524 l 484 524 z"},"O":{"x_min":0,"x_max":674,"ha":674,"o":"m 39 364 q 39 519 117 624 q 195 728 327 728 q 476 728 555 632 q 635 536 635 364 q 635 188 555 88 q 476 -12 327 -12 q 192 -12 115 93 q 39 199 39 364 z m 142 364 q 142 241 190 158 q 239 76 327 76 q 427 76 480 151 q 532 227 532 364 q 532 640 327 640 q 236 640 189 566 q 142 492 142 364 z"},"(":{"x_min":0,"x_max":367,"ha":367,"o":"m 302 720 l 302 680 q 205 540 205 272 q 205 -46 302 -158 l 302 -209 q 203 -140 149 -11 q 94 117 94 273 q 94 406 156 541 q 218 677 302 720 z"},"C":{"x_min":0,"x_max":598,"ha":598,"o":"m 530 689 l 497 605 q 450 640 350 640 q 255 640 198 559 q 142 478 142 350 q 142 228 200 152 q 258 76 351 76 q 451 76 505 147 l 559 72 q 474 -12 340 -12 q 200 -12 120 89 q 39 190 39 355 q 39 516 125 622 q 211 728 347 728 q 464 728 530 689 z"},"W":{"x_min":0,"x_max":852,"ha":852,"o":"m 623 -10 l 592 -10 l 422 483 l 263 -10 l 232 -10 l 6 715 l 108 715 l 251 216 l 409 715 l 443 715 l 598 217 l 744 715 l 846 715 z"},"A":{"x_min":0,"x_max":590,"ha":590,"o":"m 479 0 l 430 151 l 164 151 l 111 0 l 2 0 l 292 725 l 318 725 l 588 0 z m 301 538 l 190 223 l 402 223 z"},"f":{"x_min":0,"x_max":370,"ha":370,"o":"m 349 654 q 320 664 296 664 q 253 664 226 632 q 198 600 198 550 q 198 537 201 523 l 307 523 l 307 445 l 201 445 l 201 0 l 108 0 l 108 445 l 32 445 l 32 523 l 108 523 q 108 623 157 680 q 207 737 288 737 q 328 737 375 723 z"},"Q":{"x_min":0,"x_max":676,"ha":676,"o":"m 742 -53 l 728 -148 q 472 -148 392 -6 q 377 -12 327 -12 q 192 -12 115 93 q 39 199 39 364 q 39 519 117 623 q 194 728 327 728 q 476 728 555 632 q 635 536 635 364 q 635 117 487 25 q 541 -53 666 -53 z m 327 640 q 236 640 189 566 q 142 492 142 364 q 142 241 190 158 q 239 76 327 76 q 428 76 480 152 q 532 229 532 364 q 532 640 327 640 z"},"w":{"x_min":0,"x_max":744,"ha":744,"o":"m 549 -10 l 525 -10 l 372 346 l 219 -10 l 194 -10 l 7 524 l 106 524 l 218 181 l 357 524 l 382 524 l 525 181 l 646 524 l 737 524 z"},"-":{"x_min":0,"x_max":367,"ha":367,"o":"m 78 247 l 78 333 l 287 333 l 287 247 z"},"E":{"x_min":0,"x_max":536,"ha":536,"o":"m 171 627 l 171 429 l 407 429 l 407 346 l 171 346 l 171 88 l 495 88 l 495 0 l 73 0 l 73 715 l 500 715 l 500 627 z"},"s":{"x_min":0,"x_max":405,"ha":405,"o":"m 32 31 l 64 119 q 142 68 189 68 q 275 68 275 141 q 275 192 192 229 q 128 259 106 274 q 84 289 68 308 q 51 328 43 349 q 35 371 35 396 q 35 460 82 497 q 129 533 205 533 q 262 533 349 497 l 322 411 q 267 455 211 455 q 178 455 156 439 q 133 423 133 399 q 133 349 190 323 l 256 293 q 317 265 345 229 q 373 194 373 140 q 373 70 324 30 q 274 -10 187 -10 q 104 -10 32 31 z"},">":{"x_min":0,"x_max":524,"ha":524,"o":"m 434 281 l 73 106 l 73 185 l 352 311 l 73 436 l 73 514 l 434 341 z"},"l":{"x_min":0,"x_max":295,"ha":295,"o":"m 73 148 l 73 737 l 166 737 l 166 164 q 166 122 190 97 q 214 73 253 73 l 253 -10 q 73 -10 73 148 z"},"8":{"x_min":0,"x_max":524,"ha":524,"o":"m 172 398 q 127 422 98 466 q 69 509 69 556 q 69 635 123 682 q 177 728 263 728 q 355 728 406 682 q 457 635 457 555 q 457 508 426 460 q 395 411 354 388 q 483 316 483 198 q 483 99 424 45 q 364 -10 260 -10 q 43 -10 43 198 q 43 258 81 316 q 118 375 172 398 z m 292 428 q 358 491 358 558 q 358 598 332 621 q 305 645 263 645 q 167 645 167 557 q 167 491 292 428 z m 249 355 q 141 297 141 198 q 141 145 174 109 q 208 73 260 73 q 315 73 350 108 q 386 144 386 198 q 386 238 361 273 q 337 308 249 355 z"},"\\":{"x_min":0,"x_max":355,"ha":355,"o":"m 250 0 l -1 718 l 68 718 l 320 0 z"},"e":{"x_min":0,"x_max":545,"ha":545,"o":"m 506 252 l 129 252 q 129 161 180 111 q 224 68 294 68 q 374 68 427 115 l 466 48 q 444 26 400 11 q 344 -10 276 -10 q 177 -10 108 57 q 32 131 32 255 q 32 385 110 463 q 181 533 277 533 q 389 533 452 470 q 514 409 514 309 q 514 278 506 252 z m 281 455 q 219 455 177 415 q 137 376 132 320 l 421 320 q 421 376 386 414 q 348 455 281 455 z"},"b":{"x_min":0,"x_max":557,"ha":557,"o":"m 145 38 l 112 -10 l 66 -10 l 66 737 l 159 737 l 159 484 q 172 502 208 518 q 245 533 280 533 q 387 533 454 458 q 521 384 521 271 q 521 140 454 65 q 387 -10 272 -10 q 235 -10 199 4 q 164 18 145 38 z m 159 414 l 159 112 q 159 104 193 86 q 228 68 246 68 q 341 68 382 114 q 423 159 423 266 q 423 355 375 405 q 327 455 246 455 q 229 455 198 440 q 168 425 159 414 z"},"%":{"x_min":0,"x_max":600,"ha":600,"o":"m 106 -10 l 44 -10 l 476 728 l 537 728 z m 30 567 q 30 639 69 684 q 109 728 170 728 q 230 728 266 684 q 302 640 302 558 q 302 482 264 437 q 226 393 166 393 q 30 393 30 567 z m 91 562 q 91 505 111 474 q 130 442 161 442 q 240 442 240 562 q 240 678 168 678 q 133 678 112 647 q 91 616 91 562 z m 293 165 q 293 237 333 281 q 373 326 434 326 q 494 326 530 282 q 565 238 565 156 q 565 80 527 35 q 489 -10 429 -10 q 293 -10 293 165 z m 355 160 q 355 103 374 72 q 394 40 425 40 q 504 40 504 160 q 504 276 432 276 q 396 276 376 245 q 355 213 355 160 z"},"m":{"x_min":0,"x_max":830,"ha":830,"o":"m 671 0 l 671 331 q 671 455 564 455 q 531 455 501 434 q 472 413 461 387 l 461 0 l 369 0 l 369 372 q 369 410 340 432 q 311 455 263 455 q 235 455 203 433 q 172 412 159 386 l 159 0 l 66 0 l 66 523 l 126 523 l 157 462 q 211 533 292 533 q 404 533 449 463 q 464 493 507 513 q 549 533 594 533 q 675 533 720 485 q 764 437 764 350 l 764 0 z"},"#":{"x_min":0,"x_max":524,"ha":524,"o":"m 429 462 l 381 271 l 459 271 l 459 208 l 365 208 l 304 -10 l 242 -10 l 303 208 l 158 208 l 97 -10 l 34 -10 l 94 208 l 18 208 l 18 271 l 110 271 l 158 462 l 74 462 l 74 525 l 174 525 l 224 726 l 288 726 l 238 525 l 383 525 l 433 726 l 495 726 l 445 525 l 530 525 l 530 462 z m 222 462 l 174 271 l 319 271 l 367 462 z"},",":{"x_min":0,"x_max":367,"ha":367,"o":"m 109 -177 l 84 -142 q 168 -73 168 -25 q 168 -3 154 18 q 112 38 112 76 q 112 102 132 118 q 152 135 182 135 q 209 135 230 112 q 251 88 251 57 q 251 -8 224 -60 q 197 -112 109 -177 z"},"n":{"x_min":0,"x_max":546,"ha":546,"o":"m 388 0 l 388 304 q 388 388 363 421 q 337 455 278 455 q 247 455 212 436 q 177 417 159 389 l 159 0 l 66 0 l 66 523 l 129 523 l 159 456 q 205 533 309 533 q 480 533 480 324 l 480 0 z"},"h":{"x_min":0,"x_max":546,"ha":546,"o":"m 388 0 l 388 329 q 388 387 359 421 q 331 455 278 455 q 245 455 211 435 q 177 415 159 389 l 159 0 l 66 0 l 66 737 l 159 737 l 159 465 q 177 494 219 513 q 260 533 304 533 q 387 533 434 478 q 481 423 481 329 l 481 0 z"},"z":{"x_min":0,"x_max":475,"ha":475,"o":"m 165 83 l 455 83 l 455 0 l 20 0 l 20 24 l 317 440 l 24 440 l 24 523 l 452 523 l 452 497 z"},"B":{"x_min":0,"x_max":566,"ha":566,"o":"m 277 0 l 73 0 l 73 715 q 204 722 261 722 q 367 722 425 676 q 483 630 483 545 q 483 496 446 455 q 409 414 364 403 q 449 383 488 335 q 527 288 527 207 q 527 112 458 56 q 389 0 277 0 z m 171 637 l 171 432 q 202 429 247 429 q 386 429 386 542 q 386 641 258 641 q 209 641 171 637 z m 171 356 l 171 83 q 221 78 248 78 q 340 78 382 113 q 424 147 424 222 q 424 292 384 325 q 344 358 250 358 z"},"K":{"x_min":0,"x_max":576,"ha":576,"o":"m 468 0 l 266 329 l 171 194 l 171 0 l 73 0 l 73 715 l 171 715 l 171 326 l 437 715 l 545 715 l 332 405 l 576 0 z"},"R":{"x_min":0,"x_max":582,"ha":582,"o":"m 470 0 l 279 307 q 247 307 176 312 l 176 0 l 78 0 l 78 715 q 83 715 154 719 q 225 723 257 723 q 515 723 515 518 q 515 450 473 396 q 432 342 375 329 l 582 0 z m 176 627 l 176 395 q 211 390 244 390 q 332 390 372 418 q 412 447 412 520 q 412 580 369 606 q 326 632 233 632 q 219 632 176 627 z"},"T":{"x_min":0,"x_max":581,"ha":581,"o":"m 334 627 l 334 0 l 236 0 l 236 627 l 9 627 l 9 715 l 572 715 l 572 627 z"},"P":{"x_min":0,"x_max":558,"ha":558,"o":"m 171 275 l 171 0 l 73 0 l 73 715 q 184 720 207 720 q 519 720 519 512 q 519 271 243 271 q 227 271 171 275 z m 171 627 l 171 363 q 233 358 236 358 q 418 358 418 501 q 418 632 224 632 q 205 632 171 627 z"},"|":{"x_min":0,"x_max":524,"ha":524,"o":"m 226 -135 l 226 686 l 297 686 l 297 -135 z"},"t":{"x_min":0,"x_max":396,"ha":396,"o":"m 99 450 l 39 450 l 39 523 l 99 523 l 99 632 l 192 668 l 192 523 l 335 523 l 335 450 l 192 450 l 192 190 q 192 124 214 96 q 236 68 286 68 q 321 68 359 86 l 373 5 q 315 -10 247 -10 q 185 -10 142 36 q 99 83 99 153 z"},"M":{"x_min":0,"x_max":709,"ha":709,"o":"m 612 0 l 527 459 l 371 -10 l 346 -10 l 186 459 l 103 0 l 10 0 l 144 715 l 188 715 l 358 193 l 516 715 l 560 715 l 705 0 z"},"g":{"x_min":0,"x_max":502,"ha":502,"o":"m 47 -143 l 97 -69 q 178 -123 247 -123 q 310 -123 346 -101 q 382 -80 382 -47 q 382 16 291 16 q 275 16 234 8 q 193 0 170 0 q 59 0 59 84 q 59 110 85 131 q 111 152 149 162 q 39 213 39 341 q 39 423 96 478 q 153 533 237 533 q 314 533 358 501 l 404 557 l 465 500 l 409 458 q 445 411 445 336 q 445 257 396 204 q 346 150 266 142 l 189 134 q 176 133 153 124 q 130 115 130 100 q 130 80 178 80 q 199 80 243 88 q 288 95 309 95 q 386 95 429 58 q 473 21 473 -44 q 473 -116 408 -161 q 343 -205 244 -205 q 193 -205 137 -187 q 81 -169 47 -143 z m 244 458 q 195 458 165 424 q 134 390 134 341 q 134 286 164 250 q 193 214 244 214 q 293 214 321 249 q 349 284 349 341 q 349 390 319 424 q 289 458 244 458 z"},"j":{"x_min":0,"x_max":367,"ha":367,"o":"m 209 721 q 233 721 250 704 q 267 687 267 664 q 267 640 250 623 q 233 606 209 606 q 185 606 168 623 q 152 640 152 664 q 152 688 168 704 q 185 721 209 721 z m 9 -205 l 9 -122 q 104 -122 140 -93 q 175 -64 175 2 l 175 445 l 71 445 l 71 523 l 268 523 l 268 4 q 268 -104 205 -154 q 141 -205 9 -205 z"},"i":{"x_min":0,"x_max":285,"ha":285,"o":"m 162 721 q 186 721 202 704 q 219 687 219 664 q 219 640 202 623 q 186 606 162 606 q 138 606 121 623 q 104 640 104 664 q 104 688 121 704 q 138 721 162 721 z m 111 0 l 111 445 l 39 445 l 39 523 l 204 523 l 204 0 z"},"y":{"x_min":0,"x_max":493,"ha":493,"o":"m 266 -89 q 248 -139 190 -172 q 132 -205 61 -205 l 61 -122 q 119 -122 160 -95 q 202 -68 202 -29 q 202 14 187 56 q 171 98 147 159 l 6 523 l 101 523 l 254 119 l 393 523 l 487 523 z"},"@":{"x_min":0,"x_max":771,"ha":771,"o":"m 574 57 q 597 48 640 28 q 546 -65 393 -65 q 237 -65 143 31 q 49 127 49 284 q 49 443 144 545 q 239 647 393 647 q 541 647 631 559 q 722 470 722 323 q 722 240 678 182 q 634 124 562 124 q 485 124 450 158 q 409 120 352 120 q 300 120 268 149 q 235 177 235 226 q 235 287 288 319 q 341 352 431 352 q 423 423 373 423 q 322 423 292 396 l 269 444 q 309 474 366 474 q 502 474 502 318 l 502 202 q 537 176 562 176 q 652 176 652 324 q 652 437 579 512 q 506 587 393 587 q 270 587 194 502 q 118 417 118 284 q 118 153 193 74 q 268 -6 393 -6 q 506 -6 574 57 z m 431 192 l 431 306 l 406 306 q 311 306 311 228 q 311 202 329 185 q 348 167 375 167 q 406 167 431 192 z"},".":{"x_min":0,"x_max":367,"ha":367,"o":"m 173 137 q 203 137 225 116 q 246 94 246 64 q 246 34 225 12 q 203 -10 173 -10 q 143 -10 121 12 q 100 34 100 64 q 100 94 121 116 q 143 137 173 137 z"},"p":{"x_min":0,"x_max":557,"ha":557,"o":"m 159 29 l 159 -205 l 66 -205 l 66 523 l 159 523 l 159 480 q 211 533 286 533 q 397 533 459 463 q 521 394 521 260 q 521 141 459 66 q 396 -10 278 -10 q 245 -10 207 2 q 169 14 159 29 z m 159 410 l 159 105 q 167 92 196 80 q 224 68 251 68 q 424 68 424 264 q 424 363 383 409 q 342 455 251 455 q 232 455 204 441 q 175 427 159 410 z"},"X":{"x_min":0,"x_max":557,"ha":557,"o":"m 447 0 l 269 287 l 105 0 l 6 0 l 217 371 l 23 716 l 120 715 l 272 445 l 441 715 l 539 715 l 317 369 l 550 0 z"},"*":{"x_min":0,"x_max":367,"ha":367,"o":"m 292 550 l 207 549 l 284 498 l 307 467 l 248 417 l 221 451 l 181 528 l 137 449 l 116 418 l 52 467 l 76 501 l 153 542 l 67 555 l 23 570 l 59 644 l 105 625 l 167 579 l 136 679 l 136 718 l 222 718 l 222 681 l 192 578 l 270 630 l 306 643 l 333 564 z"},"Y":{"x_min":0,"x_max":570,"ha":570,"o":"m 334 320 l 334 0 l 237 0 l 237 320 l 6 715 l 107 715 l 285 403 l 463 715 l 564 715 z"},"c":{"x_min":0,"x_max":495,"ha":495,"o":"m 460 480 l 415 415 q 400 429 365 442 q 329 455 294 455 q 218 455 174 402 q 129 349 129 256 q 129 165 175 116 q 220 68 301 68 q 363 68 427 117 l 463 39 q 389 -10 278 -10 q 171 -10 102 62 q 32 134 32 256 q 32 381 104 457 q 177 533 303 533 q 343 533 391 516 q 438 499 460 480 z"},"!":{"x_min":0,"x_max":367,"ha":367,"o":"m 202 187 l 167 187 q 129 432 129 528 l 129 728 l 240 728 l 240 528 q 240 435 202 187 z m 188 137 q 218 137 239 116 q 261 94 261 64 q 261 34 239 12 q 218 -10 188 -10 q 157 -10 136 12 q 114 34 114 64 q 114 94 136 116 q 157 137 188 137 z"},"/":{"x_min":0,"x_max":524,"ha":524,"o":"m 171 0 l 92 0 l 352 718 l 429 718 z"},"[":{"x_min":0,"x_max":367,"ha":367,"o":"m 99 -205 l 99 737 l 325 737 l 325 654 l 196 654 l 196 -122 l 325 -122 l 325 -205 z"},"6":{"x_min":0,"x_max":524,"ha":524,"o":"m 328 728 l 375 676 q 333 659 251 560 q 170 462 161 409 q 202 448 274 448 q 369 448 426 387 q 483 327 483 221 q 483 116 424 52 q 365 -12 276 -12 q 41 -12 41 300 q 41 430 133 566 q 225 702 328 728 z m 144 224 q 144 71 269 71 q 322 71 352 111 q 383 150 383 216 q 383 284 351 324 q 318 365 268 365 q 144 365 144 224 z"},"r":{"x_min":0,"x_max":389,"ha":389,"o":"m 350 434 q 320 455 289 455 q 240 455 203 409 q 166 364 166 300 l 166 0 l 73 0 l 73 523 l 166 523 l 166 439 q 217 533 317 533 q 342 533 389 524 z"},"2":{"x_min":0,"x_max":524,"ha":524,"o":"m 34 0 l 34 20 l 258 363 q 328 471 328 546 q 328 645 216 645 q 177 645 142 624 q 107 604 92 572 l 29 624 q 45 671 94 700 q 143 728 211 728 q 314 728 373 680 q 431 633 431 546 q 431 465 354 343 l 193 88 l 473 88 l 473 0 z"},"{":{"x_min":0,"x_max":367,"ha":367,"o":"m 277 -205 q 194 -205 139 -165 q 84 -125 84 -60 q 84 -25 103 45 q 121 115 121 152 q 121 249 19 255 l 19 296 q 67 300 94 330 q 121 360 121 408 q 121 441 103 503 q 84 564 84 594 q 84 656 139 695 q 193 733 273 733 l 345 733 l 345 668 l 260 668 q 180 668 180 579 q 180 547 195 497 q 210 447 210 417 q 210 340 101 277 q 152 256 181 222 q 210 188 210 155 q 210 123 195 67 q 180 11 180 -25 q 180 -137 308 -137 l 345 -137 l 345 -205 z"},"9":{"x_min":0,"x_max":524,"ha":524,"o":"m 191 -12 l 144 40 q 186 57 268 155 q 350 253 358 307 q 318 268 245 268 q 150 268 93 329 q 36 389 36 495 q 36 600 95 664 q 154 728 243 728 q 478 728 478 416 q 478 286 386 150 q 294 14 191 -12 z m 375 492 q 375 645 250 645 q 197 645 167 605 q 136 565 136 500 q 136 432 168 392 q 201 351 251 351 q 375 351 375 492 z"}," ":{"x_min":0,"x_max":301,"ha":301,"o":""},"I":{"x_min":0,"x_max":278,"ha":278,"o":"m 90 0 l 90 715 l 188 715 l 188 0 z"},"H":{"x_min":0,"x_max":654,"ha":654,"o":"m 483 0 l 483 346 l 171 346 l 171 0 l 73 0 l 73 715 l 171 715 l 171 429 l 483 429 l 483 715 l 581 715 l 581 0 z"},"4":{"x_min":0,"x_max":524,"ha":524,"o":"m 431 195 l 431 0 l 338 0 l 338 195 l 12 195 l 12 250 l 396 718 l 431 718 l 431 270 l 503 270 l 503 195 z m 338 523 l 128 270 l 338 270 z"},"~":{"x_min":0,"x_max":524,"ha":524,"o":"m 441 350 q 416 249 348 249 q 309 249 249 267 q 188 286 174 286 q 140 286 122 249 l 77 249 q 84 290 109 320 q 133 350 167 350 q 209 350 266 331 q 322 312 346 312 q 385 312 398 350 z"},"D":{"x_min":0,"x_max":613,"ha":613,"o":"m 217 0 l 73 0 l 73 715 q 211 720 250 720 q 399 720 487 629 q 574 538 574 387 q 574 0 217 0 z m 171 627 l 171 93 q 204 88 252 88 q 354 88 413 165 q 472 242 472 378 q 472 632 244 632 q 230 632 171 627 z"},"^":{"x_min":0,"x_max":524,"ha":524,"o":"m 373 443 l 253 662 l 132 441 l 73 441 l 228 718 l 280 718 l 435 443 z"},"0":{"x_min":0,"x_max":524,"ha":524,"o":"m 31 379 q 31 534 94 631 q 156 728 270 728 q 382 728 438 647 q 495 566 495 364 q 495 190 436 90 q 376 -10 263 -10 q 149 -10 90 71 q 31 151 31 379 z m 129 371 q 129 73 256 73 q 329 73 363 139 q 397 205 397 370 q 397 484 384 537 q 371 590 341 618 q 312 645 267 645 q 129 645 129 371 z"},"F":{"x_min":0,"x_max":525,"ha":525,"o":"m 171 627 l 171 429 l 422 429 l 422 346 l 171 346 l 171 0 l 73 0 l 73 715 l 515 715 l 515 627 z"},"`":{"x_min":0,"x_max":524,"ha":524,"o":"m 273 627 l 163 790 l 259 790 l 341 627 z"},"k":{"x_min":0,"x_max":504,"ha":504,"o":"m 404 0 l 240 262 l 159 178 l 159 0 l 66 0 l 66 737 l 159 737 l 159 280 l 359 523 l 467 523 l 300 324 l 504 0 z"},"u":{"x_min":0,"x_max":546,"ha":546,"o":"m 154 523 l 154 189 q 154 68 259 68 q 305 68 343 95 q 381 121 393 156 l 393 523 l 486 523 l 486 0 l 393 0 l 393 72 q 377 42 330 16 q 283 -10 238 -10 q 152 -10 107 40 q 61 89 61 180 l 61 523 z"},"]":{"x_min":0,"x_max":367,"ha":367,"o":"m 269 -205 l 42 -205 l 42 -122 l 171 -122 l 171 654 l 42 654 l 42 737 l 269 737 z"},"U":{"x_min":0,"x_max":648,"ha":648,"o":"m 73 715 l 171 715 l 171 226 q 171 160 212 118 q 254 76 322 76 q 395 76 436 117 q 478 158 478 228 l 478 715 l 575 715 l 575 218 q 575 109 508 49 q 440 -12 323 -12 q 203 -12 138 47 q 73 107 73 218 z"},"o":{"x_min":0,"x_max":537,"ha":537,"o":"m 32 263 q 32 384 97 458 q 162 533 269 533 q 381 533 443 461 q 505 390 505 263 q 505 136 441 63 q 378 -10 269 -10 q 157 -10 94 64 q 32 138 32 263 z m 129 263 q 129 66 269 66 q 333 66 370 119 q 407 171 407 263 q 407 457 269 457 q 205 457 167 405 q 129 354 129 263 z"},"N":{"x_min":0,"x_max":638,"ha":638,"o":"m 536 -10 l 166 513 l 166 0 l 73 0 l 73 715 l 112 715 l 472 221 l 472 715 l 565 715 l 565 -10 z"},"+":{"x_min":0,"x_max":524,"ha":524,"o":"m 298 345 l 469 345 l 469 276 l 298 276 l 298 107 l 229 107 l 229 276 l 60 276 l 60 345 l 229 345 l 229 512 l 298 512 z"},"G":{"x_min":0,"x_max":676,"ha":676,"o":"m 569 666 l 528 585 q 455 640 384 640 q 271 640 207 561 q 142 481 142 351 q 142 227 205 151 q 269 76 379 76 q 457 76 505 123 l 505 290 l 406 290 l 406 373 l 603 373 l 603 62 q 564 28 494 8 q 424 -12 358 -12 q 210 -12 125 88 q 39 188 39 355 q 39 521 133 624 q 227 728 387 728 q 499 728 569 666 z"},"q":{"x_min":0,"x_max":557,"ha":557,"o":"m 401 -205 l 401 31 q 360 -10 265 -10 q 158 -10 97 62 q 37 133 37 260 q 37 386 106 459 q 176 533 285 533 q 354 533 413 483 l 438 523 l 494 523 l 494 -205 z m 401 415 q 361 455 301 455 q 222 455 178 401 q 134 348 134 260 q 134 169 178 119 q 222 68 297 68 q 364 68 401 103 z"},"d":{"x_min":0,"x_max":557,"ha":557,"o":"m 397 0 l 397 39 q 349 -9 257 -9 q 159 -9 98 61 q 37 131 37 249 q 37 366 107 449 q 177 533 274 533 q 355 533 397 495 l 397 737 l 490 737 l 490 0 z m 397 402 q 362 455 301 455 q 227 455 180 399 q 134 343 134 257 q 134 68 306 68 q 328 68 359 82 q 390 96 397 112 z"},"1":{"x_min":0,"x_max":524,"ha":524,"o":"m 243 0 l 243 548 l 98 458 l 98 549 q 153 577 215 625 q 277 674 312 718 l 341 718 l 341 0 z"},"5":{"x_min":0,"x_max":524,"ha":524,"o":"m 113 349 l 80 372 l 80 718 l 436 718 l 436 635 l 173 635 l 173 461 q 209 488 265 488 q 364 488 417 429 q 469 369 469 259 q 469 -10 229 -10 q 129 -10 63 46 l 101 127 q 167 73 229 73 q 367 73 367 245 q 367 405 231 405 q 166 405 113 349 z"}}}
